<svg xmlns="http://www.w3.org/2000/svg" viewBox="0 0 170 170"><path fill="#000" d="M150.37 130.25c-2.45 5.66-5.35 10.87-8.71 15.66-4.58 6.53-8.33 11.05-11.22 13.56-4.48 4.12-9.28 6.23-14.42 6.35-3.69 0-8.14-1.05-13.32-3.18-5.19-2.12-9.97-3.17-14.34-3.17-4.58 0-9.49 1.05-14.75 3.17-5.26 2.13-9.5 3.24-12.74 3.35-4.92.21-9.84-1.96-14.74-6.53-3.13-2.73-7.1-7.43-11.96-14.1s-8.4-14.93-10.63-24.81c-3.13-13.25-3.23-24.58-.33-33.99 2.57-8.6 7.42-15.34 14.54-20.21 6.58-4.59 13.9-6.94 21.96-7.06 6.38.12 13.55 2.18 21.52 6.18 3.58 1.88 6.47 2.82 8.65 2.82 2.5 0 5.66-1.06 9.47-3.18 5.76-3.29 11.85-4.8 18.25-4.54 7.44.22 13.9 2.37 19.38 6.44 2.12 1.5 4.3 3.6 6.52 6.3-8.5 4.2-12.72 10.4-12.63 18.66.1 7.21 3.03 13.14 8.78 17.78 3.12 2.59 6.8 4.6 11.03 6.03-.78 2.05-1.57 4.1-2.38 6.2-.7 1.76-1.55 4-2.55 6.7zM92.8 28.5c-.32 6.57-2.9 12.62-7.75 18.15-5.24 5.9-11.45 8.94-18.65 9.1-.35-6.86 2.45-13.06 8.35-18.62 5.06-4.9 11.13-7.7 18.26-8.38-.05-.08-.05-.16-.21-.25z"/></svg>