<svg xmlns="http://www.w3.org/2000/svg" viewBox="0 0 100 100"><path fill="#1877F2" d="M50 0C22.4 0 0 22.4 0 50c0 24.9 18.2 45.5 42.2 49.2V64.4h-12.7V50h12.7v-11c0-12.5 7.5-19.5 18.9-19.5 5.5 0 11.2 1 11.2 1v12.4h-6.3c-6.2 0-8.2 3.9-8.2 7.9V50h14L71.8 64.4H57.8v34.8C81.8 95.5 100 74.9 100 50 100 22.4 77.6 0 50 0z"/><path fill="#fff" d="M71.8 64.4L74 50H57.8v-9.3c0-4 2-7.9 8.2-7.9h6.3V20.4s-5.7-1-11.2-1c-11.5 0-18.9 7-18.9 19.5V50h-12.7v14.4h12.7v34.8c2.6.4 5.3.6 8 .6s5.4-.2 8-.6V64.4h14z"/></svg>